<?xml version="1.0" encoding="utf-8"?>
<!-- Generator: Adobe Illustrator 16.0.3, SVG Export Plug-In . SVG Version: 6.00 Build 0)  -->
<!DOCTYPE svg PUBLIC "-//W3C//DTD SVG 1.1//EN" "http://www.w3.org/Graphics/SVG/1.1/DTD/svg11.dtd">
<svg version="1.1" id="Layer_1" xmlns="http://www.w3.org/2000/svg" xmlns:xlink="http://www.w3.org/1999/xlink" x="0px" y="0px"
	 width="35px" height="35px" viewBox="0 0 35 35" enable-background="new 0 0 35 35" xml:space="preserve">
<g>
	<linearGradient id="SVGID_1_" gradientUnits="userSpaceOnUse" x1="16.8579" y1="10.1606" x2="16.8579" y2="6.1924">
		<stop  offset="0" style="stop-color:#CCCCCC"/>
		<stop  offset="1" style="stop-color:#FFFFFF"/>
	</linearGradient>
	<path fill="url(#SVGID_1_)" d="M30.35,8.177c0,1.096-0.889,1.984-1.984,1.984H5.35c-1.096,0-1.984-0.888-1.984-1.984l0,0
		c0-1.096,0.888-1.984,1.984-1.984h23.016C29.461,6.192,30.35,7.081,30.35,8.177L30.35,8.177z"/>
	<linearGradient id="SVGID_2_" gradientUnits="userSpaceOnUse" x1="16.8579" y1="19.4844" x2="16.8579" y2="15.5166">
		<stop  offset="0" style="stop-color:#CCCCCC"/>
		<stop  offset="1" style="stop-color:#FFFFFF"/>
	</linearGradient>
	<path fill="url(#SVGID_2_)" d="M30.35,17.5c0,1.095-0.889,1.984-1.984,1.984H5.35c-1.096,0-1.984-0.889-1.984-1.984l0,0
		c0-1.096,0.888-1.984,1.984-1.984h23.016C29.461,15.516,30.35,16.404,30.35,17.5L30.35,17.5z"/>
	<linearGradient id="SVGID_3_" gradientUnits="userSpaceOnUse" x1="16.8579" y1="29.0088" x2="16.8579" y2="25.041">
		<stop  offset="0" style="stop-color:#CCCCCC"/>
		<stop  offset="1" style="stop-color:#FFFFFF"/>
	</linearGradient>
	<path fill="url(#SVGID_3_)" d="M30.35,27.025c0,1.095-0.889,1.983-1.984,1.983H5.35c-1.096,0-1.984-0.889-1.984-1.983l0,0
		c0-1.097,0.888-1.984,1.984-1.984h23.016C29.461,25.041,30.35,25.929,30.35,27.025L30.35,27.025z"/>
</g>
</svg>
